<svg xmlns="http://www.w3.org/2000/svg" version="1.1" xmlns:xlink="http://www.w3.org/1999/xlink" xmlns:svgjs="http://svgjs.com/svgjs" width="1440" height="560" preserveAspectRatio="none" viewBox="0 0 1440 560"><g mask="url(&quot;#SvgjsMask1027&quot;)" fill="none"><path d="M1322.67 422.4L1356.07 422.4L1356.07 441.21L1322.67 441.21z" fill="rgba(235, 94, 110, 1)"></path><path d="M572.67 59.25a13.44 13.44 0 1 0 15.23-22.14z" fill="rgba(235, 94, 110, 1)"></path><path d="M1173.78 512.11L1189.72 512.11L1189.72 528.05L1173.78 528.05z" fill="rgba(188, 88, 142, 1)"></path><path d="M947.02 440.47 a42.16 42.16 0 1 0 84.32 0 a42.16 42.16 0 1 0 -84.32 0z" stroke="rgba(235, 94, 110, 1)"></path><path d="M234.57 500.66L245.66 500.66L245.66 511.75L234.57 511.75z" stroke="rgba(251, 125, 61, 1)"></path><path d="M927.94 526.65L958.29 526.65L958.29 565.09L927.94 565.09z" fill="rgba(251, 125, 61, 1)"></path><path d="M677.63 537.54 a21.23 21.23 0 1 0 42.46 0 a21.23 21.23 0 1 0 -42.46 0z" stroke="rgba(235, 94, 110, 1)"></path><path d="M940.61 242.82a38.69 38.69 0 1 0 11.16-76.57z" fill="rgba(235, 94, 110, 1)"></path><path d="M242.25 378.63L287.08 378.63L287.08 423.46L242.25 423.46z" fill="rgba(188, 88, 142, 1)"></path><path d="M342.41 296.66 a12.94 12.94 0 1 0 25.88 0 a12.94 12.94 0 1 0 -25.88 0z" stroke="rgba(188, 88, 142, 1)"></path><path d="M581.14 42.66a3.91 3.91 0 1 0 4.17-6.62z" fill="rgba(188, 88, 142, 1)"></path><path d="M430.5 107.06a5.04 5.04 0 1 0-0.41 10.07z" fill="rgba(188, 88, 142, 1)"></path><path d="M414.45 68.57 a40.99 40.99 0 1 0 81.98 0 a40.99 40.99 0 1 0 -81.98 0z" stroke="rgba(235, 94, 110, 1)"></path><path d="M173.35 493.72L215.53 493.72L215.53 544.11L173.35 544.11z" stroke="rgba(188, 88, 142, 1)"></path><path d="M1099.01 214.74a50.23 50.23 0 1 0 12.33 99.7z" fill="rgba(188, 88, 142, 1)"></path><path d="M1390.11 486.02L1428.32 486.02L1428.32 524.23L1390.11 524.23z" stroke="rgba(251, 125, 61, 1)"></path><path d="M1343.25 393.52L1377.52 393.52L1377.52 427.79L1343.25 427.79z" stroke="rgba(188, 88, 142, 1)"></path><path d="M107.5 79.3a32.32 32.32 0 1 0 62.22-17.5z" stroke="rgba(235, 94, 110, 1)"></path><path d="M290.7 359.61L336.26 359.61L336.26 411.66L290.7 411.66z" stroke="rgba(235, 94, 110, 1)"></path><path d="M746 28.01a36.49 36.49 0 1 0 70.14-20.15z" stroke="rgba(188, 88, 142, 1)"></path><path d="M485.33 424.18a39.09 39.09 0 1 0 43.94-64.66z" stroke="rgba(188, 88, 142, 1)"></path><path d="M1319.09 221.19 a50.16 50.16 0 1 0 100.32 0 a50.16 50.16 0 1 0 -100.32 0z" stroke="rgba(188, 88, 142, 1)"></path><path d="M33.49 326.75 a29.37 29.37 0 1 0 58.74 0 a29.37 29.37 0 1 0 -58.74 0z" fill="rgba(188, 88, 142, 1)"></path><path d="M810.31 242.04L813.43 242.04L813.43 248.58L810.31 248.58z" fill="rgba(235, 94, 110, 1)"></path><path d="M233.66 499.89L258.67 499.89L258.67 524.9L233.66 524.9z" fill="rgba(188, 88, 142, 1)"></path><path d="M698.32 36.26L744.07 36.26L744.07 82.01L698.32 82.01z" fill="rgba(251, 125, 61, 1)"></path><path d="M50.09 44.14L91.69 44.14L91.69 85.74L50.09 85.74z" fill="rgba(251, 125, 61, 1)"></path><path d="M1280.07 137 a4.98 4.98 0 1 0 9.96 0 a4.98 4.98 0 1 0 -9.96 0z" stroke="rgba(188, 88, 142, 1)"></path><path d="M1141.32 534.69a5.1 5.1 0 1 0-0.01 10.2z" fill="rgba(188, 88, 142, 1)"></path><path d="M218.98 326.2L261 326.2L261 368.22L218.98 368.22z" fill="rgba(235, 94, 110, 1)"></path><path d="M1081.82 546.65L1111.63 546.65L1111.63 597.95L1081.82 597.95z" fill="rgba(188, 88, 142, 1)"></path><path d="M778.82 313.29 a23.26 23.26 0 1 0 46.52 0 a23.26 23.26 0 1 0 -46.52 0z" stroke="rgba(235, 94, 110, 1)"></path><path d="M600.45 159.05L621.75 159.05L621.75 180.35L600.45 180.35z" stroke="rgba(188, 88, 142, 1)"></path></g><defs><mask id="SvgjsMask1027"><rect width="1440" height="560" fill="#ffffff"></rect></mask></defs></svg>