<svg xmlns="http://www.w3.org/2000/svg" version="1.1" xmlns:xlink="http://www.w3.org/1999/xlink" xmlns:svgjs="http://svgjs.com/svgjs" width="2040" height="1000" preserveAspectRatio="none" viewBox="0 0 2040 1000"><g mask="url(&quot;#SvgjsMask10187&quot;)" fill="none"><rect width="455.2" height="455.2" clip-path="url(&quot;#SvgjsClipPath10188&quot;)" x="435.66" y="575.71" fill="url(#SvgjsPattern10189)" transform="rotate(162.91, 663.26, 803.31)"></rect><rect width="115.8" height="115.8" clip-path="url(&quot;#SvgjsClipPath10190&quot;)" x="1216.98" y="923.5" fill="url(#SvgjsPattern10191)" transform="rotate(298.8, 1274.88, 981.4)"></rect><path d="M292.96 1125.44 L399.92 972.24L454.89402741793305 1157.2940274179332z" stroke="rgba(251, 125, 61, 1)" stroke-width="1" stroke-dasharray="2, 2"></path><circle r="165.8403718447769" cx="1724.9" cy="919.69" fill="rgba(188, 88, 142, 1)"></circle><rect width="558.6" height="558.6" clip-path="url(&quot;#SvgjsClipPath10192&quot;)" x="-94.92" y="701" fill="url(#SvgjsPattern10193)" transform="rotate(131.33, 184.38, 980.3)"></rect><path d="M30.35 739.09L42.74 735.85 48.62 747.23 61.01 743.99 66.88 755.37 79.27 752.13 85.15 763.51" stroke="rgba(188, 88, 142, 1)" stroke-width="1.59"></path><rect width="60" height="60" clip-path="url(&quot;#SvgjsClipPath10194&quot;)" x="1928.14" y="337.36" fill="url(#SvgjsPattern10195)" transform="rotate(95.27, 1958.14, 367.36)"></rect><rect width="564" height="564" clip-path="url(&quot;#SvgjsClipPath10196&quot;)" x="1078.64" y="-262.19" fill="url(#SvgjsPattern10197)" transform="rotate(139.27, 1360.64, 19.81)"></rect><rect width="252" height="252" clip-path="url(&quot;#SvgjsClipPath10198&quot;)" x="927.39" y="462.62" fill="url(#SvgjsPattern10199)" transform="rotate(300.55, 1053.39, 588.62)"></rect><path d="M1523.31 53.87L1510.51 54.3 1507.28 41.9 1494.48 42.34 1491.25 29.94 1478.45 30.37 1475.22 17.98M1528.09 47.45L1515.3 47.88 1512.07 35.49 1499.27 35.92 1496.04 23.53 1483.24 23.96 1480.01 11.57" stroke="rgba(251, 125, 61, 1)" stroke-width="2.5"></path></g><defs><mask id="SvgjsMask10187"><rect width="2040" height="1000" fill="#ffffff"></rect></mask><pattern x="0" y="0" width="455.2" height="11.38" patternUnits="userSpaceOnUse" id="SvgjsPattern10189"><rect width="455.2" height="5.69" x="0" y="0" fill="rgba(188, 88, 142, 1)"></rect><rect width="455.2" height="5.69" x="0" y="5.69" fill="rgba(0, 0, 0, 0)"></rect></pattern><clipPath id="SvgjsClipPath10188"><circle r="113.8" cx="663.26" cy="803.31"></circle></clipPath><pattern x="0" y="0" width="11.58" height="11.58" patternUnits="userSpaceOnUse" id="SvgjsPattern10191"><path d="M5.79 1L5.79 10.58M1 5.79L10.58 5.79" stroke="rgba(188, 88, 142, 1)" fill="none" stroke-width="3.33"></path></pattern><clipPath id="SvgjsClipPath10190"><circle r="28.95" cx="1274.88" cy="981.4"></circle></clipPath><pattern x="0" y="0" width="13.3" height="13.3" patternUnits="userSpaceOnUse" id="SvgjsPattern10193"><path d="M0 13.3L6.65 0L13.3 13.3" stroke="rgba(188, 88, 142, 1)" fill="none"></path></pattern><clipPath id="SvgjsClipPath10192"><circle r="139.65" cx="184.38" cy="980.3"></circle></clipPath><pattern x="0" y="0" width="60" height="6" patternUnits="userSpaceOnUse" id="SvgjsPattern10195"><rect width="60" height="3" x="0" y="0" fill="rgba(251, 125, 61, 1)"></rect><rect width="60" height="3" x="0" y="3" fill="rgba(0, 0, 0, 0)"></rect></pattern><clipPath id="SvgjsClipPath10194"><circle r="15" cx="1958.14" cy="367.36"></circle></clipPath><pattern x="0" y="0" width="564" height="6" patternUnits="userSpaceOnUse" id="SvgjsPattern10197"><rect width="564" height="3" x="0" y="0" fill="rgba(188, 88, 142, 1)"></rect><rect width="564" height="3" x="0" y="3" fill="rgba(0, 0, 0, 0)"></rect></pattern><clipPath id="SvgjsClipPath10196"><circle r="141" cx="1360.64" cy="19.81"></circle></clipPath><pattern x="0" y="0" width="6" height="6" patternUnits="userSpaceOnUse" id="SvgjsPattern10199"><path d="M3 1L3 5M1 3L5 3" stroke="rgba(251, 125, 61, 1)" fill="none" stroke-width="1.72"></path></pattern><clipPath id="SvgjsClipPath10198"><circle r="63" cx="1053.39" cy="588.62"></circle></clipPath></defs></svg>