<svg xmlns="http://www.w3.org/2000/svg" version="1.1" xmlns:xlink="http://www.w3.org/1999/xlink" xmlns:svgjs="http://svgjs.com/svgjs" width="2040" height="1000" preserveAspectRatio="none" viewBox="0 0 2040 1000"><g mask="url(&quot;#SvgjsMask10322&quot;)" fill="none"><rect width="617.76" height="617.76" clip-path="url(&quot;#SvgjsClipPath10323&quot;)" x="795.08" y="-282.87" fill="url(#SvgjsPattern10324)" transform="rotate(43.65, 1103.96, 26.01)"></rect><path d="M1070.55 142.89L1080.09 151.43 1073.84 162.61 1083.38 171.16 1077.14 182.34 1086.67 190.89 1080.43 202.07" stroke="rgba(188, 88, 142, 1)" stroke-width="2.04"></path><rect width="119" height="119" clip-path="url(&quot;#SvgjsClipPath10325&quot;)" x="517.19" y="721.75" fill="url(#SvgjsPattern10326)" transform="rotate(207.87, 576.69, 781.25)"></rect><path d="M1702.06 643.33a5.6 5.6 0 1 0 8.6 7.17 5.6 5.6 0 1 0-8.6-7.17zM1714.35 653.58a5.6 5.6 0 1 0 8.6 7.17 5.6 5.6 0 1 0-8.6-7.17zM1726.63 663.83a5.6 5.6 0 1 0 8.61 7.17 5.6 5.6 0 1 0-8.61-7.17zM1738.92 674.07a5.6 5.6 0 1 0 8.6 7.18 5.6 5.6 0 1 0-8.6-7.18z" stroke="rgba(251, 125, 61, 1)" stroke-width="1" stroke-dasharray="2, 2"></path><rect width="127.39999999999999" height="127.39999999999999" clip-path="url(&quot;#SvgjsClipPath10327&quot;)" x="464.17" y="229.51" fill="url(#SvgjsPattern10328)" transform="rotate(240.51, 527.87, 293.21)"></rect><rect width="432" height="432" clip-path="url(&quot;#SvgjsClipPath10329&quot;)" x="1673.37" y="215.07" fill="url(#SvgjsPattern10330)" transform="rotate(183.1, 1889.37, 431.07)"></rect><path d="M1174.96 50.2a5.6 5.6 0 1 0 7.93 7.92 5.6 5.6 0 1 0-7.93-7.92zM1186.29 61.51a5.6 5.6 0 1 0 7.93 7.91 5.6 5.6 0 1 0-7.93-7.91zM1197.61 72.81a5.6 5.6 0 1 0 7.93 7.91 5.6 5.6 0 1 0-7.93-7.91zM1208.94 84.11a5.6 5.6 0 1 0 7.93 7.91 5.6 5.6 0 1 0-7.93-7.91zM1141.01 38.93a5.6 5.6 0 1 0 7.93 7.91 5.6 5.6 0 1 0-7.93-7.91zM1152.34 50.23a5.6 5.6 0 1 0 7.92 7.91 5.6 5.6 0 1 0-7.92-7.91zM1163.66 61.53a5.6 5.6 0 1 0 7.93 7.91 5.6 5.6 0 1 0-7.93-7.91zM1174.99 72.83a5.6 5.6 0 1 0 7.92 7.91 5.6 5.6 0 1 0-7.92-7.91z" stroke="rgba(188, 88, 142, 1)" stroke-width="1"></path><rect width="168" height="168" clip-path="url(&quot;#SvgjsClipPath10331&quot;)" x="1056.51" y="230.45" fill="url(#SvgjsPattern10332)" transform="rotate(322.79, 1140.51, 314.45)"></rect><rect width="383.04" height="383.04" clip-path="url(&quot;#SvgjsClipPath10333&quot;)" x="1013.82" y="749.21" fill="url(#SvgjsPattern10334)" transform="rotate(251.21, 1205.34, 940.73)"></rect><rect width="245.76" height="245.76" clip-path="url(&quot;#SvgjsClipPath10335&quot;)" x="108.58" y="-59.88" fill="url(#SvgjsPattern10336)" transform="rotate(87.86, 231.46, 63)"></rect></g><defs><mask id="SvgjsMask10322"><rect width="2040" height="1000" fill="#ffffff"></rect></mask><pattern x="0" y="0" width="11.44" height="11.44" patternUnits="userSpaceOnUse" id="SvgjsPattern10324"><path d="M5.72 1L5.72 10.44M1 5.72L10.44 5.72" stroke="rgba(251, 125, 61, 1)" fill="none" stroke-width="3.36"></path></pattern><clipPath id="SvgjsClipPath10323"><circle r="154.44" cx="1103.96" cy="26.01"></circle></clipPath><pattern x="0" y="0" width="11.9" height="11.9" patternUnits="userSpaceOnUse" id="SvgjsPattern10326"><path d="M5.95 1L5.95 10.9M1 5.95L10.9 5.95" stroke="rgba(251, 125, 61, 1)" fill="none" stroke-width="1"></path></pattern><clipPath id="SvgjsClipPath10325"><circle r="29.75" cx="576.69" cy="781.25"></circle></clipPath><pattern x="0" y="0" width="9.1" height="9.1" patternUnits="userSpaceOnUse" id="SvgjsPattern10328"><path d="M0 9.1L4.55 0L9.1 9.1" stroke="rgba(251, 125, 61, 1)" fill="none"></path></pattern><clipPath id="SvgjsClipPath10327"><circle r="31.849999999999998" cx="527.87" cy="293.21"></circle></clipPath><pattern x="0" y="0" width="6" height="6" patternUnits="userSpaceOnUse" id="SvgjsPattern10330"><path d="M0 6L3 0L6 6" stroke="rgba(251, 125, 61, 1)" fill="none"></path></pattern><clipPath id="SvgjsClipPath10329"><circle r="108" cx="1889.37" cy="431.07"></circle></clipPath><pattern x="0" y="0" width="168" height="6" patternUnits="userSpaceOnUse" id="SvgjsPattern10332"><rect width="168" height="3" x="0" y="0" fill="rgba(251, 125, 61, 1)"></rect><rect width="168" height="3" x="0" y="3" fill="rgba(0, 0, 0, 0)"></rect></pattern><clipPath id="SvgjsClipPath10331"><circle r="42" cx="1140.51" cy="314.45"></circle></clipPath><pattern x="0" y="0" width="10.64" height="10.64" patternUnits="userSpaceOnUse" id="SvgjsPattern10334"><path d="M5.32 1L5.32 9.64M1 5.32L9.64 5.32" stroke="rgba(188, 88, 142, 1)" fill="none" stroke-width="4.26"></path></pattern><clipPath id="SvgjsClipPath10333"><circle r="95.76" cx="1205.34" cy="940.73"></circle></clipPath><pattern x="0" y="0" width="245.76" height="7.68" patternUnits="userSpaceOnUse" id="SvgjsPattern10336"><rect width="245.76" height="3.84" x="0" y="0" fill="rgba(188, 88, 142, 1)"></rect><rect width="245.76" height="3.84" x="0" y="3.84" fill="rgba(0, 0, 0, 0)"></rect></pattern><clipPath id="SvgjsClipPath10335"><circle r="61.44" cx="231.46" cy="63"></circle></clipPath></defs></svg>